<svg width="9" height="16" viewBox="0 0 9 16" fill="none" xmlns="http://www.w3.org/2000/svg">
<rect width="9" height="16" fill="#F5F5F5"/>
<g id="Desktop - 4" clip-path="url(#clip0_0_1)">
<rect width="1440" height="1024" transform="translate(-286 -520)" fill="#F8FAFC"/>
<g id="Frame 5">
<g id="Frame 3">
<g id="Frame 15" filter="url(#filter0_dd_0_1)">
<rect x="-190" y="-392" width="1248" height="832" rx="16" fill="white"/>
<g id="Frame 37">
<g id="Frame 41">
<g id="About" clip-path="url(#clip1_0_1)">
<g id="Frame 28">
<g id="Frame 10">
<g id="Frame" clip-path="url(#clip2_0_1)">
<path id="Vector" d="M7.5 0H1.5C0.947812 0 0.5 0.447812 0.5 1V15C0.5 15.5522 0.947812 16 1.5 16H7.5C8.05219 16 8.5 15.5522 8.5 15V1C8.5 0.447812 8.05219 0 7.5 0ZM1.5 15V1H7.5V3H5.75C5.61188 3 5.5 3.11188 5.5 3.25V3.75C5.5 3.88812 5.61188 4 5.75 4H7.5V6H5.75C5.61188 6 5.5 6.11188 5.5 6.25V6.75C5.5 6.88812 5.61188 7 5.75 7H7.5V9H5.75C5.61188 9 5.5 9.11187 5.5 9.25V9.75C5.5 9.88813 5.61188 10 5.75 10H7.5V12H5.75C5.61188 12 5.5 12.1119 5.5 12.25V12.75C5.5 12.8881 5.61188 13 5.75 13H7.5V15H1.5Z" fill="#0F172A"/>
</g>
</g>
</g>
</g>
</g>
</g>
</g>
</g>
</g>
</g>
<defs>
<filter id="filter0_dd_0_1" x="-195" y="-393" width="1258" height="842" filterUnits="userSpaceOnUse" color-interpolation-filters="sRGB">
<feFlood flood-opacity="0" result="BackgroundImageFix"/>
<feColorMatrix in="SourceAlpha" type="matrix" values="0 0 0 0 0 0 0 0 0 0 0 0 0 0 0 0 0 0 127 0" result="hardAlpha"/>
<feMorphology radius="2" operator="erode" in="SourceAlpha" result="effect1_dropShadow_0_1"/>
<feOffset dy="2"/>
<feGaussianBlur stdDeviation="2"/>
<feComposite in2="hardAlpha" operator="out"/>
<feColorMatrix type="matrix" values="0 0 0 0 0 0 0 0 0 0 0 0 0 0 0 0 0 0 0.1 0"/>
<feBlend mode="normal" in2="BackgroundImageFix" result="effect1_dropShadow_0_1"/>
<feColorMatrix in="SourceAlpha" type="matrix" values="0 0 0 0 0 0 0 0 0 0 0 0 0 0 0 0 0 0 127 0" result="hardAlpha"/>
<feMorphology radius="1" operator="erode" in="SourceAlpha" result="effect2_dropShadow_0_1"/>
<feOffset dy="4"/>
<feGaussianBlur stdDeviation="3"/>
<feComposite in2="hardAlpha" operator="out"/>
<feColorMatrix type="matrix" values="0 0 0 0 0 0 0 0 0 0 0 0 0 0 0 0 0 0 0.1 0"/>
<feBlend mode="normal" in2="effect1_dropShadow_0_1" result="effect2_dropShadow_0_1"/>
<feBlend mode="normal" in="SourceGraphic" in2="effect2_dropShadow_0_1" result="shape"/>
</filter>
<clipPath id="clip0_0_1">
<rect width="1440" height="1024" fill="white" transform="translate(-286 -520)"/>
</clipPath>
<clipPath id="clip1_0_1">
<rect width="177" height="48" fill="white" transform="translate(-121 -8)"/>
</clipPath>
<clipPath id="clip2_0_1">
<rect width="8" height="16" fill="white" transform="translate(0.5)"/>
</clipPath>
</defs>
</svg>
